<?xml version="1.0" encoding="utf-8"?>
<!-- Generator: Adobe Illustrator 19.2.0, SVG Export Plug-In . SVG Version: 6.00 Build 0)  -->
<svg version="1.1" id="Ebene_1" xmlns="http://www.w3.org/2000/svg" xmlns:xlink="http://www.w3.org/1999/xlink" x="0px" y="0px"
	 viewBox="0 0 25 20" style="enable-background:new 0 0 25 20;" xml:space="preserve">
<path d="M12.5,8.8l10-6.3h-20L12.5,8.8z M22.5,17.5V5l-10,6.2L2.5,5v12.5H22.5z M22.5,0c0.7,0,1.2,0.3,1.7,0.8S25,1.9,25,2.5v15
	c0,0.7-0.2,1.2-0.7,1.8S23.2,20,22.5,20h-20c-0.7,0-1.2-0.3-1.7-0.8S0,18.2,0,17.5v-15c0-0.7,0.2-1.2,0.7-1.8S1.8,0,2.5,0H22.5z"/>
</svg>
